<?xml version="1.0" encoding="UTF-8"?>
<svg width="256" height="256" viewBox="0 0 64 64" xmlns="http://www.w3.org/2000/svg" role="img" aria-label="NutriHealth AI mark">
  <defs>
    <linearGradient id="g1" x1="0" y1="0" x2="1" y2="1">
      <stop offset="0%" stop-color="#10B981"/>
      <stop offset="100%" stop-color="#059669"/>
    </linearGradient>
  </defs>
  <!-- Halo emas 2045 -->
  <circle cx="32" cy="32" r="28" fill="none" stroke="#EAB308" stroke-width="2.5"/>
  <!-- Daun kiri membentuk huruf N (growth) -->
  <path d="M18 44 C14 34, 16 24, 26 18 C28 17, 30 17, 32 18 C26 22,24 28,24 34 C24 38,22 41,18 44 Z" fill="url(#g1)"/>
  <!-- Daun kanan (continuity) -->
  <path d="M46 20 C50 30, 48 40, 38 46 C36 47, 34 47, 32 46 C38 42,40 36,40 30 C40 26,42 23,46 20 Z" fill="url(#g1)"/>
  <!-- Heart stroke tipis (care) -->
  <path d="M22 28 C22 24, 26 22, 29 24 C31 25, 32 27, 32 27 C32 27, 33 25, 35 24 C38 22, 42 24, 42 28 C42 31, 40 34, 32 40 C24 34, 22 31, 22 28 Z"
        fill="none" stroke="#0F172A" stroke-width="1.5" stroke-linejoin="round"/>
  <!-- Data nodes & trend line (AI) -->
  <polyline points="20,42 28,35 36,32 44,26" fill="none" stroke="#0F172A" stroke-width="1.5" stroke-linecap="round"/>
  <circle cx="28" cy="35" r="1.8" fill="#0F172A"/>
  <circle cx="36" cy="32" r="1.8" fill="#0F172A"/>
  <circle cx="44" cy="26" r="1.8" fill="#EAB308"/>
</svg>
